<?xml version="1.0" encoding="iso-8859-1"?>
<!-- Generator: Adobe Illustrator 19.0.0, SVG Export Plug-In . SVG Version: 6.00 Build 0)  -->
<svg version="1.1" id="Capa_1" xmlns="http://www.w3.org/2000/svg" xmlns:xlink="http://www.w3.org/1999/xlink" x="0px" y="0px"
	 viewBox="0 0 511.999 511.999" style="enable-background:new 0 0 511.999 511.999;" xml:space="preserve">
<path style="fill:#7D4E3E;" d="M252.764,159.141c-11.913,0-21.571-9.658-21.571-21.571c0-71.873,44.018-122.411,86.571-129.748
	c11.751-2.031,22.899,5.853,24.923,17.592c2.024,11.74-5.853,22.898-17.592,24.922c-21.281,3.669-50.762,36.026-50.762,87.234
	C274.335,149.483,264.677,159.141,252.764,159.141z"/>
<path style="opacity:0.1;enable-background:new    ;" d="M238.553,88.6c-4.676,14.807-7.359,31.238-7.359,48.971
	c0,11.913,9.658,21.571,21.571,21.571s21.571-9.658,21.571-21.571c0-18.969,4.051-35.343,10.226-48.639
	C269.23,88.363,253.888,88.252,238.553,88.6z"/>
<path style="fill:#FAD97E;" d="M433.888,221.226c0,139.186-84.265,283.273-177.888,283.273S78.111,360.412,78.111,221.226H433.888z"
	/>
<g style="opacity:0.1;">
	<path d="M203.371,465.226c-1.524,0-3.064-0.463-4.393-1.426c-4.145-3.001-8.282-6.362-12.295-9.989
		c-3.072-2.777-3.313-7.52-0.535-10.593c2.78-3.073,7.521-3.311,10.594-0.535c3.612,3.266,7.324,6.283,11.033,8.968
		c3.355,2.429,4.105,7.118,1.677,10.473C207.986,464.149,205.695,465.226,203.371,465.226z"/>
	<path d="M177.99,441.746c-2.087,0-4.162-0.866-5.645-2.559c-7.907-9.029-15.406-19.297-22.289-30.517
		c-2.166-3.531-1.06-8.149,2.471-10.315c3.529-2.166,8.148-1.061,10.314,2.471c6.442,10.502,13.438,20.083,20.789,28.479
		c2.729,3.116,2.415,7.855-0.701,10.584C181.505,441.134,179.743,441.746,177.99,441.746z"/>
</g>
<path style="opacity:0.1;enable-background:new    ;" d="M78.111,221.225c0,15.281,1.017,30.62,2.949,45.822
	c4.751,1.388,9.77,2.146,14.969,2.146h299.242C380.168,382.854,314.005,488.26,238.31,502.79c5.846,1.122,11.749,1.708,17.69,1.708
	c83.343,0,159.249-114.184,174.916-237.446c0.007-0.002,0.015-0.004,0.022-0.006c1.932-15.202,2.949-30.541,2.949-45.822H78.111z"/>
<path style="fill:#A16B4E;" d="M415.97,241.431H96.029c-29.436,0-53.297-23.862-53.297-53.297v-21.098
	c0-16.949,11.55-31.717,28-35.8l0,0c121.666-30.201,248.87-30.201,370.535,0l0,0c16.45,4.083,28,18.851,28,35.8v21.098
	C469.268,217.568,445.405,241.431,415.97,241.431z"/>
<path style="opacity:0.1;enable-background:new    ;" d="M442.351,131.528c2.897,5.294,4.521,11.342,4.521,17.697v21.098
	c0,29.436-23.862,53.297-53.297,53.297H73.633c-7.352,0-14.355-1.489-20.727-4.181c9.689,13.323,25.39,21.991,43.123,21.991h319.94
	c29.436,0,53.297-23.862,53.297-53.297v-21.098C469.268,150.462,458.221,135.98,442.351,131.528z"/>
<g style="opacity:0.1;">
	<path d="M394.89,189.716l9.167-9.167c2.929-2.929,2.929-7.678,0-10.606c-2.93-2.929-7.678-2.929-10.607,0l-9.166,9.166
		l-18.333-18.333l9.167-9.167c2.929-2.929,2.929-7.678,0-10.606c-2.93-2.929-7.678-2.929-10.607,0l-9.167,9.167l-9.167-9.167
		c-2.93-2.929-7.678-2.929-10.607,0c-2.929,2.929-2.929,7.678,0,10.606l9.167,9.167l-18.333,18.333l-9.166-9.166
		c-2.93-2.929-7.678-2.929-10.607,0s-2.929,7.678,0,10.606l9.167,9.167l-9.167,9.167c-2.929,2.929-2.929,7.678,0,10.606
		c1.465,1.464,3.385,2.197,5.304,2.197s3.839-0.732,5.304-2.197l9.166-9.166l9.166,9.166c1.465,1.465,3.384,2.197,5.304,2.197
		c1.919,0,3.839-0.732,5.304-2.197c2.929-2.929,2.929-7.678,0-10.606l-9.166-9.167l18.333-18.333l18.333,18.333l-9.167,9.167
		c-2.929,2.929-2.929,7.678,0,10.606c1.465,1.464,3.385,2.197,5.304,2.197c1.919,0,3.839-0.732,5.304-2.197l9.166-9.166l9.166,9.166
		c1.465,1.464,3.385,2.197,5.304,2.197c1.919,0,3.839-0.732,5.304-2.197c2.929-2.929,2.929-7.678,0-10.606L394.89,189.716z"/>
	<path d="M142.82,181.781l9.167-9.167c2.929-2.929,2.929-7.678,0-10.606c-2.929-2.929-7.677-2.929-10.607,0l-9.167,9.166
		l-9.167-9.166c-2.93-2.929-7.678-2.929-10.607,0s-2.929,7.678,0,10.606l9.167,9.167l-9.167,9.167
		c-2.929,2.929-2.929,7.678,0,10.606c1.465,1.465,3.384,2.197,5.304,2.197c1.919,0,3.839-0.732,5.304-2.197l9.167-9.166l9.167,9.166
		c1.465,1.464,3.385,2.197,5.304,2.197s3.839-0.732,5.304-2.197c2.929-2.929,2.929-7.678,0-10.606L142.82,181.781z"/>
</g>
<g style="opacity:0.3;">
	<ellipse style="fill:#F15B70;" cx="181.808" cy="349.516" rx="31.759" ry="13.78"/>
	<ellipse style="fill:#F15B70;" cx="330.197" cy="349.516" rx="31.759" ry="13.78"/>
</g>
<path d="M443.074,123.956c-50.983-12.655-103.18-20.019-155.578-22.13c8.709-25.854,25.796-41.844,38.874-44.099
	c15.796-2.724,26.432-17.79,23.709-33.586c-1.318-7.653-5.537-14.335-11.877-18.813c-6.345-4.481-14.056-6.221-21.711-4.897
	c-14.946,2.577-29.952,9.934-43.393,21.275c-3.165,2.671-3.566,7.403-0.896,10.568c2.671,3.166,7.402,3.567,10.569,0.896
	c11.405-9.624,23.946-15.833,36.271-17.958c3.706-0.642,7.438,0.2,10.506,2.368c3.068,2.167,5.109,5.402,5.749,9.108
	c1.317,7.646-3.831,14.938-11.477,16.256c-10.601,1.828-21.735,8.904-31.353,19.924c-9.159,10.494-16.196,23.708-20.547,38.486
	c-9.69-0.197-19.383-0.226-29.074-0.063c3.961-16.708,10.729-32.351,19.831-45.669c2.337-3.42,1.459-8.087-1.96-10.424
	c-3.42-2.337-8.086-1.459-10.425,1.96c-10.839,15.859-18.694,34.617-22.911,54.557c-53.365,1.953-106.541,9.352-158.457,22.239
	c-19.838,4.924-33.693,22.639-33.693,43.08v21.098c0,24.732,14.852,46.047,36.098,55.533
	c3.254,52.213,17.818,106.011,41.218,152.027c1.324,2.603,3.959,4.102,6.691,4.102c1.144,0,2.305-0.262,3.394-0.816
	c3.692-1.877,5.163-6.393,3.286-10.085c-21.676-42.624-35.463-92.204-39.234-140.682c3.047,0.472,6.167,0.719,9.344,0.719h273.783
	c4.142,0,7.5-3.358,7.5-7.5s-3.358-7.5-7.5-7.5H96.03c-25.253,0-45.798-20.545-45.798-45.798v-21.098
	c0-13.533,9.173-25.261,22.307-28.521c120.022-29.793,246.9-29.793,366.922,0c13.134,3.26,22.307,14.988,22.307,28.521v21.098
	c0,25.253-20.545,45.798-45.798,45.798H405.17c-4.143,0-7.5,3.358-7.5,7.5s3.357,7.5,7.5,7.5h10.801
	c3.175,0,6.293-0.247,9.337-0.718c-4.684,60.426-24.725,121.605-55.671,169.289c-16.1,24.807-34.039,44.358-53.319,58.111
	C296.424,489.804,276.132,497,256.002,497c-40.031,0-81.926-29.718-114.945-81.533c-2.227-3.493-6.861-4.519-10.356-2.294
	c-3.493,2.226-4.52,6.862-2.295,10.355c17.208,27.003,36.614,48.421,57.68,63.66c22.761,16.464,46.283,24.812,69.915,24.812
	c23.315,0,46.54-8.133,69.026-24.174c20.821-14.852,40.063-35.765,57.191-62.157c33.245-51.227,54.419-117.298,58.444-181.997
	c21.25-9.486,36.105-30.803,36.105-55.537v-21.098C476.768,146.595,462.912,128.88,443.074,123.956z M189.306,318.857v-12.316
	c0-4.142-3.358-7.5-7.5-7.5c-4.143,0-7.5,3.358-7.5,7.5v12.316c0,4.142,3.357,7.5,7.5,7.5
	C185.948,326.357,189.306,323,189.306,318.857z M256,335.815c9.664,0,18.854-4.186,25.215-11.484
	c2.722-3.123,2.396-7.86-0.727-10.582c-3.125-2.721-7.862-2.396-10.582,0.727c-3.511,4.028-8.579,6.339-13.906,6.339
	c-5.327,0-10.396-2.311-13.907-6.339c-2.723-3.123-7.46-3.448-10.582-0.726c-3.123,2.722-3.447,7.46-0.726,10.582
	C237.146,331.629,246.336,335.815,256,335.815z M337.693,318.857v-12.316c0-4.142-3.357-7.5-7.5-7.5c-4.143,0-7.5,3.358-7.5,7.5
	v12.316c0,4.142,3.357,7.5,7.5,7.5C334.335,326.357,337.693,323,337.693,318.857z"/>
<g>
</g>
<g>
</g>
<g>
</g>
<g>
</g>
<g>
</g>
<g>
</g>
<g>
</g>
<g>
</g>
<g>
</g>
<g>
</g>
<g>
</g>
<g>
</g>
<g>
</g>
<g>
</g>
<g>
</g>
</svg>
