<svg height="512pt" viewBox="-9 0 511 512" width="512pt" xmlns="http://www.w3.org/2000/svg"><path d="m152.777344 239.558594c-21.9375 1.988281-43.222656-.519532-62.554688-7.457032-24.171875-8.671874-44.761718-23.878906-59.550781-43.972656-26.707031-36.292968-30.046875-81.539062-8.714844-118.082031 12.230469-20.953125 30.140625-34.210937 51.789063-38.34375 46.539062-8.878906 94.015625 27.0625 99.277344 31.191406l-28.527344 36.464844c-9.148438-7.101563-61.058594-40.695313-82.554688-5.96875-12.390625 20.019531-9.558594 46.117187 6.023438 67.296875 7.75 10.53125 37.6875 43.828125 97.535156 30.042969zm0 0" fill="#eedb00"/><path d="m342.058594 239.558594c21.9375 1.988281 43.222656-.519532 62.554687-7.457032 24.171875-8.671874 44.761719-23.878906 59.550781-43.972656 26.703126-36.296875 30.042969-81.539062 8.714844-118.082031-12.234375-20.953125-30.140625-34.210937-51.792968-38.34375-46.535157-8.878906-94.015626 27.0625-99.277344 31.191406l28.53125 36.464844c9.148437-7.101563 61.054687-40.695313 82.550781-5.96875 12.390625 20.019531 9.5625 46.117187-6.019531 67.296875-7.75 10.53125-37.691406 43.828125-97.535156 30.042969zm0 0" fill="#eedb00"/><path d="m343.890625 504.5h-192.949219c-12.917968 0-23.386718-10.472656-23.386718-23.390625v-36.964844c0-19.480469 15.789062-35.265625 35.265624-35.265625h169.195313c19.476563 0 35.265625 15.785156 35.265625 35.265625v36.964844c0 12.917969-10.472656 23.390625-23.390625 23.390625zm0 0" fill="#f2ad9a"/><path d="m314.34375 268.847656h-133.851562s53.257812 30.125-8.050782 140.027344h149.949219c-61.304687-109.902344-8.046875-140.027344-8.046875-140.027344zm0 0" fill="#f4e74d"/><path d="m201.859375 322.042969c42.433594.863281 72.488281-8.511719 92.214844-18.433594 4.5-25.835937 20.269531-34.761719 20.269531-34.761719h-133.851562s23.027343 13.027344 21.367187 53.195313zm0 0" fill="#eedb00"/><path d="m155.578125 53.046875s-131.289063 225.113281 91.839844 225.113281c223.128906 0 91.839843-225.113281 91.839843-225.113281l-91.839843-22.773437zm0 0" fill="#f9ee80"/><path d="m176.519531 134.113281c5.773438-28.246093 27.773438-50.390625 55.984375-56.34375 41.457032-8.746093 61.519532-24.722656 61.519532-24.722656v-11.214844l-46.613282-11.558593-91.84375 22.773437s-120.285156 206.304687 65.199219 223.917969c-53.964844-36.46875-53.269531-98.707032-44.246094-142.851563zm0 0" fill="#f4e74d"/><path d="m339.257812 53.046875h-183.679687c-12.578125 0-22.777344-10.195313-22.777344-22.773437 0-12.578126 10.199219-22.773438 22.777344-22.773438h183.679687c12.578126 0 22.777344 10.195312 22.777344 22.773438-.003906 12.578124-10.199218 22.773437-22.777344 22.773437zm0 0" fill="#fcf5af"/><path d="m329.253906 408.875h-163.671875c-12.410156 0-22.46875-10.058594-22.46875-22.46875s10.058594-22.472656 22.46875-22.472656h163.671875c12.410156 0 22.46875 10.0625 22.46875 22.472656s-10.058594 22.46875-22.46875 22.46875zm0 0" fill="#f9ee80"/><path d="m307.945312 476.664062h-121.054687c-11.035156 0-19.976563-8.945312-19.976563-19.976562s8.941407-19.972656 19.976563-19.972656h121.054687c11.03125 0 19.972657 8.941406 19.972657 19.972656.003906 11.03125-8.941407 19.976562-19.972657 19.976562zm0 0" fill="#fffcdc"/><path d="m191.601562 145.21875c0-9.078125-9.242187-16.4375-20.640624-16.4375-11.402344 0-20.644532 7.359375-20.644532 16.4375s9.242188 16.4375 20.644532 16.4375c11.398437 0 20.640624-7.359375 20.640624-16.4375zm0 0" fill="#ff9eb1"/><path d="m344.515625 145.21875c0-9.078125-9.242187-16.4375-20.640625-16.4375s-20.640625 7.359375-20.640625 16.4375 9.242187 16.4375 20.640625 16.4375 20.640625-7.359375 20.640625-16.4375zm0 0" fill="#ff9eb1"/><path d="m262.925781 125.304688c-1.269531-.832032-6.882812-2.992188-10.386719 2.152343-1.679687 2.464844-4.125 2.761719-5.121093 2.761719-.996094 0-3.484375-.269531-5.125-2.761719-2.273438-3.464843-6.921875-4.425781-10.382813-2.152343-3.464844 2.273437-4.425781 6.925781-2.152344 10.386718 3.917969 5.964844 10.519532 9.527344 17.660157 9.527344 7.136719 0 13.738281-3.5625 17.660156-9.527344 2.273437-3.460937 1.308594-8.113281-2.152344-10.386718zm0 0"/><path d="m185.613281 114.980469c-4.910156 0-9.523437 1.910156-12.996093 5.382812-2.929688 2.925781-2.929688 7.675781 0 10.605469 2.929687 2.929688 7.679687 2.929688 10.609374 0 .859376-.859375 1.863282-.988281 2.386719-.988281.519531 0 1.453125.207031 2.386719.988281 4.734375 3.960938 9.140625 1.464844 10.605469 0 2.929687-2.929688 2.929687-7.679688 0-10.605469-3.472657-3.472656-8.085938-5.382812-12.992188-5.382812zm0 0"/><path d="m309.222656 114.980469c-4.90625 0-9.523437 1.910156-12.992187 5.382812-2.929688 2.925781-2.929688 7.675781 0 10.605469 2.929687 2.929688 7.675781 2.929688 10.605469 0 .863281-.859375 1.867187-.988281 2.386718-.988281.523438 0 1.457032.207031 2.390625.988281 4.734375 3.960938 9.140625 1.464844 10.605469 0 2.929688-2.929688 2.929688-7.679688 0-10.605469-3.472656-3.472656-8.085938-5.382812-12.996094-5.382812zm0 0"/><path d="m307.945312 429.210938h-121.054687c-15.148437 0-27.476563 12.328124-27.476563 27.476562 0 15.152344 12.324219 27.476562 27.476563 27.476562h88.902344c4.140625 0 7.5-3.359374 7.5-7.5 0-4.144531-3.359375-7.5-7.5-7.5h-88.902344c-6.878906 0-12.476563-5.597656-12.476563-12.476562s5.597657-12.476562 12.476563-12.476562h121.054687c6.878907 0 12.476563 5.597656 12.476563 12.476562s-5.597656 12.476562-12.476563 12.476562c-4.144531 0-7.5 3.355469-7.5 7.5 0 4.140626 3.355469 7.5 7.5 7.5 15.148438 0 27.476563-12.324218 27.476563-27.476562 0-15.148438-12.328125-27.476562-27.476563-27.476562zm0 0"/><path d="m479.355469 66.265625c-13.355469-22.878906-33.019531-37.378906-56.859375-41.929687-16.320313-3.113282-34.097656-1.527344-52.992188 4.703124-.652344-16.121093-13.964844-29.039062-30.246094-29.039062h-183.683593c-16.28125 0-29.59375 12.921875-30.242188 29.046875-18.894531-6.230469-36.671875-7.824219-52.992187-4.710937-23.839844 4.550781-43.503906 19.050781-56.859375 41.933593-22.863281 39.164063-19.355469 87.558594 9.152343 126.304688 1.46875 1.996093 5.988282 4.945312 10.484376 1.59375 3.320312-2.472657 4.050781-7.148438 1.597656-10.484375-24.90625-33.847656-28.078125-75.941406-8.28125-109.855469 11.105468-19.023437 27.261718-31.042969 46.71875-34.757813 16.441406-3.136718 34.980468-.496093 55.132812 7.8125 3.351563 5.089844 8.195313 9.109376 13.90625 11.4375-3.046875 5.890626-7.203125 14.371094-11.585937 24.667969-34.390625-18.6875-62.847657-16.472656-77.039063 6.453125-13.902344 22.464844-11.46875 51.464844 6.355469 75.691406 5.59375 7.601563 21.15625 25.316407 48.996094 32.878907 1.785156 12.441406 5.425781 23.703125 10.921875 33.742187-10.097656-1.164062-19.84375-3.394531-29.085938-6.710937-13.417968-4.8125-25.65625-11.738281-36.378906-20.585938-3.191406-2.636719-7.921875-2.1875-10.558594 1.011719-2.636718 3.191406-2.183594 7.921875 1.011719 10.554688 12.0625 9.953124 25.808594 17.738281 40.859375 23.140624 14.238281 5.109376 29.476562 7.953126 45.347656 8.46875 10.988282 12.316407 25.742188 21.671876 44.191406 28.015626 3.667969 2.472656 29.144532 22.179687 10.472657 80.785156h-22.117188c-16.527343 0-29.972656 13.445312-29.972656 29.972656 0 7.585938 2.839844 14.515625 7.5 19.800781-13.6875 7.140625-23.054687 21.457031-23.054687 37.933594v36.96875c0 17.035156 13.855468 30.890625 30.886718 30.890625h192.949219c17.03125 0 30.890625-13.855469 30.890625-30.890625v-36.96875c0-16.476563-9.371094-30.792969-23.058594-37.933594 4.664063-5.285156 7.5-12.214843 7.5-19.800781 0-16.527344-13.441406-29.972656-29.96875-29.972656h-22.121094c-18.675781-58.601563 6.695313-78.246094 10.476563-80.785156 18.449219-6.34375 33.199219-15.699219 44.1875-28.015626 15.871094-.515624 31.113281-3.359374 45.347656-8.46875 25.578125-9.175781 47.382813-25.289062 63.058594-46.589843 28.507813-38.746094 32.015625-87.140625 9.152344-126.308594zm-369.703125 115.667969c-20.039063-6.9375-31.371094-19.878906-35.648438-25.691406-14.117187-19.1875-15.53125-41.308594-5.683594-58.90625 12.980469-23.203126 51.128907-4.476563 58.648438-.308594-10.996094 27.046875-17.675781 64.882812-17.316406 84.90625zm250.128906 299.175781c0 8.761719-7.128906 15.890625-15.890625 15.890625h-192.949219c-8.761718 0-15.886718-7.128906-15.886718-15.890625v-36.96875c0-15.308594 12.453124-27.765625 27.765624-27.765625h169.191407c15.3125 0 27.769531 12.457031 27.769531 27.765625zm-15.558594-94.703125c0 8.253906-6.714844 14.96875-14.96875 14.96875h-163.671875c-8.253906 0-14.972656-6.714844-14.972656-14.96875 0-8.257812 6.71875-14.972656 14.972656-14.972656h163.671875c8.253906 0 14.96875 6.714844 14.96875 14.972656zm-52.773437-29.972656h-88.058594c10.640625-36.460938 5.625-60.097656-1.953125-74.574219 13.820312 2.523437 29.144531 3.800781 45.980469 3.800781 16.835937 0 32.160156-1.277344 45.976562-3.800781-7.574219 14.476563-12.589843 38.113281-1.945312 74.574219zm-44.03125-85.773438c-57.03125 0-94.605469-15.0625-111.6875-44.773437-31.664063-55.082031 13.820312-145.925781 24.269531-165.339844h147.617188c4.140624 0 7.5-3.355469 7.5-7.5 0-4.140625-3.359376-7.5-7.5-7.5h-152.039063c-8.421875 0-15.273437-6.851563-15.273437-15.273437 0-8.421876 6.851562-15.273438 15.273437-15.273438h183.683594c8.421875 0 15.273437 6.851562 15.273437 15.273438 0 8.421874-6.855468 15.105468-15.273437 15.273437-8.621094.171875-8.800781 7.5-6.472657 11.277344 0 0 61.769532 107.34375 26.328126 169.039062-17.074219 29.726563-54.65625 44.796875-111.699219 44.796875zm120.445312-173.632812c7.519531-4.171875 43.214844-23.136719 58.652344.308594 11.085937 16.84375 8.433594 39.71875-5.6875 58.90625-4.273437 5.8125-15.605469 18.753906-35.648437 25.691406.363281-20.023438-5.332032-55.238282-17.316407-84.90625zm90.257813 86.65625c-13.902344 18.890625-33.28125 33.195312-56.042969 41.359375-9.242187 3.316406-18.984375 5.542969-29.085937 6.710937 5.5-10.039062 9.140624-21.300781 10.925781-33.742187 27.839843-7.5625 43.402343-25.28125 48.996093-32.878907 17.824219-24.226562 20.257813-53.230468 6.355469-75.691406-14.191406-22.929687-42.648437-25.140625-77.042969-6.453125-4.382812-10.296875-8.535156-18.78125-11.582031-24.671875 5.707031-2.324218 10.554688-6.34375 13.90625-11.433594 20.152344-8.308593 38.691407-10.949218 55.132813-7.8125 19.457031 3.714844 35.609375 15.734376 46.714844 34.757813 19.800781 33.914063 16.628906 76.007813-8.277344 109.855469zm0 0"/></svg>