<svg height="512pt" viewBox="0 -47 512 511" width="512pt" xmlns="http://www.w3.org/2000/svg"><path d="m54.847656 138.722656h-29.726562c-9.730469 0-17.621094 7.886719-17.621094 17.621094v76.53125c0 9.730469 7.890625 17.621094 17.621094 17.621094h29.726562zm0 0" fill="#4e5660"/><path d="m203.523438 90.691406 89.605468-68.175781c22.214844-16.902344 54.175782-1.058594 54.175782 26.855469v287.136718c0 27.914063-31.960938 43.757813-54.175782 26.855469l-89.605468-68.175781c-12.902344-9.816406-28.667969-15.132812-44.878907-15.132812h-82.855469c-11.566406 0-20.941406-9.375-20.941406-20.941407v-132.347656c0-11.566406 9.375-20.941406 20.941406-20.941406h82.855469c16.210938 0 31.976563-5.316407 44.878907-15.132813zm0 0" fill="#a3defe"/><path d="m203.523438 295.1875 14.683593 11.171875c-36.160156-57.222656-48.542969-142.347656-47.703125-201.496094-3.902344.632813-7.867187.960938-11.859375.960938h-82.855469c-11.566406 0-20.941406 9.375-20.941406 20.941406v132.347656c0 11.566407 9.375 20.941407 20.941406 20.941407h82.855469c16.210938 0 31.976563 5.316406 44.878907 15.132812zm0 0" fill="#7acefa"/><path d="m293.132812 22.515625-8.023437 6.101563v328.644531l8.023437 6.101562c22.214844 16.902344 54.175782 1.058594 54.175782-26.855469v-287.136718c-.003906-27.914063-31.964844-43.757813-54.175782-26.855469zm0 0" fill="#8eafe2"/><path d="m446.535156 314.359375c-3.683594 0-7.371094-1.40625-10.183594-4.21875-5.625-5.625-5.625-14.746094 0-20.371094 25.417969-25.417969 39.417969-59.210937 39.417969-95.160156s-14-69.742187-39.417969-95.160156c-5.625-5.625-5.625-14.746094 0-20.371094s14.746094-5.625 20.371094 0c63.703125 63.703125 63.703125 167.359375 0 231.0625-2.8125 2.8125-6.5 4.21875-10.1875 4.21875zm0 0" fill="#8ee2cf"/><path d="m473.980469 216.625c-4.511719 27.578125-17.476563 52.996094-37.628907 73.144531-5.625 5.625-5.625 14.746094 0 20.371094 2.8125 2.8125 6.5 4.21875 10.183594 4.21875 3.6875 0 7.375-1.40625 10.1875-4.21875 20.28125-20.28125 34.097656-44.621094 41.464844-70.421875-11.386719-3.761719-19.375-12.933594-24.207031-23.09375zm0 0" fill="#6fce91"/><path d="m398.671875 266.496094c-3.6875 0-7.371094-1.40625-10.183594-4.21875-5.625-5.625-5.625-14.746094 0-20.371094 26.078125-26.078125 26.078125-68.515625 0-94.59375-5.625-5.625-5.625-14.746094 0-20.371094s14.746094-5.625 20.371094 0c37.3125 37.3125 37.308594 98.023438 0 135.335938-2.8125 2.8125-6.5 4.21875-10.1875 4.21875zm0 0" fill="#8ee2cf"/><path d="m407.507812 202.972656c-1.777343 14.242188-8.109374 28.019532-19.019531 38.933594-5.625 5.625-5.625 14.746094 0 20.371094 2.8125 2.8125 6.5 4.21875 10.183594 4.21875 3.6875 0 7.375-1.40625 10.1875-4.21875 13.816406-13.820313 22.503906-30.847656 26.085937-48.707032-11.535156.476563-20.632812-3.921874-27.4375-10.597656zm0 0" fill="#6fce91"/><path d="m495.96875 389.839844-370.277344-370.28125c-7.402344-7.402344-17.441406-11.558594-27.910156-11.558594h-34.191406c-10.929688 0-16.402344 13.214844-8.675782 20.941406l370.28125 370.277344c7.402344 7.402344 17.4375 11.558594 27.90625 11.558594h34.195313c10.925781 0 16.398437-13.210938 8.671875-20.9375zm0 0" fill="#e8899e"/><path d="m247.992188 141.863281-122.300782-122.304687c-7.402344-7.402344-17.441406-11.558594-27.910156-11.558594h-34.191406c-10.929688 0-16.402344 13.214844-8.675782 20.941406l203.351563 203.347656c-12.96875-26.675781-19.140625-66.914062-10.273437-90.425781zm0 0" fill="#de5c6e"/><path d="m115.199219 240.679688c0-8.9375-9.097657-16.179688-20.316407-16.179688-11.222656 0-20.320312 7.242188-20.320312 16.179688s9.097656 16.183593 20.320312 16.183593c11.21875 0 20.316407-7.246093 20.316407-16.183593zm0 0" fill="#fff"/><path d="m225.34375 240.679688c0-8.9375-9.097656-16.179688-20.320312-16.179688-11.222657 0-20.320313 7.242188-20.320313 16.179688s9.097656 16.183593 20.320313 16.183593c11.222656 0 20.320312-7.246093 20.320312-16.183593zm0 0" fill="#fff"/><path d="m166.335938 228.246094c0-10.125-7.335938-18.332032-16.382813-18.332032-9.050781 0-16.382813 8.207032-16.382813 18.332032s7.332032 18.335937 16.382813 18.335937c9.046875 0 16.382813-8.210937 16.382813-18.335937zm0 0" fill="#4e5660"/><path d="m173.835938 228.246094c0-14.242188-10.714844-25.832032-23.882813-25.832032-13.171875 0-23.882813 11.589844-23.882813 25.832032 0 14.246094 10.710938 25.832031 23.882813 25.832031 13.167969 0 23.882813-11.585937 23.882813-25.832031zm-32.765626 0c0-5.972656 3.984376-10.832032 8.882813-10.832032s8.882813 4.859376 8.882813 10.832032c0 5.976562-3.984376 10.832031-8.882813 10.832031s-8.882813-4.855469-8.882813-10.832031zm-35.292968-6.671875v-8.722657c0-4.144531-3.355469-7.5-7.5-7.5-4.140625 0-7.5 3.355469-7.5 7.5v8.722657c0 4.144531 3.359375 7.5 7.5 7.5 4.144531 0 7.5-3.355469 7.5-7.5zm329.960937 97.425781c3.257813 1.855469 6.949219 2.859375 10.796875 2.859375 5.851563 0 11.351563-2.277344 15.488282-6.414063 32.230468-32.226562 49.976562-75.140624 49.976562-120.835937s-17.746094-88.605469-49.976562-120.835937c-8.539063-8.539063-22.433594-8.535157-30.976563 0-8.539063 8.542968-8.539063 22.4375 0 30.980468 24.003906 24 37.222656 55.910156 37.222656 89.855469s-13.21875 65.855469-37.222656 89.859375c-7.121094 7.121094-8.28125 17.953125-3.527344 26.3125l-39.648437-39.644531c3.261718 1.851562 6.949218 2.859375 10.800781 2.859375 5.851563 0 11.351563-2.277344 15.488281-6.417969 40.234375-40.234375 40.234375-105.703125 0-145.941406-8.542968-8.539063-22.4375-8.535157-30.976562 0-8.542969 8.542969-8.542969 22.4375 0 30.976562 11.195312 11.199219 17.363281 26.113281 17.363281 41.996094s-6.167969 30.796875-17.363281 41.996094c-7.121094 7.121093-8.28125 17.957031-3.527344 26.316406l-24.851562-24.851563v-167.667968c0-4.140625-3.355469-7.5-7.5-7.5-4.144532 0-7.5 3.359375-7.5 7.5v152.667968l-47.195313-47.195312v-143.539062l5.0625-3.851563c6.464844-4.921875 14.300781-6.566406 22.058594-4.644531 7.789062 1.933594 14.402343 7.324218 17.683593 14.417968 1.742188 3.757813 6.199219 5.394532 9.957032 3.652344 3.761718-1.738281 5.398437-6.199218 3.65625-9.957031-5.175782-11.175781-15.523438-19.652344-27.679688-22.671875-12.082031-2.996094-24.75-.351562-34.757812 7.265625l-88.203125 67.105469-69.394531-69.394532c-8.871094-8.871093-20.667969-13.757812-33.210938-13.757812h-34.191406c-8.023438 0-15.191406 4.789062-18.261719 12.203125-3.070313 7.410156-1.390625 15.867187 4.285156 21.539063l64.078125 64.082031h-37.902344c-15.683593 0-28.441406 12.757812-28.441406 28.441406v4.457031h-22.226562c-13.851563 0-25.121094 11.265625-25.121094 25.121094v76.53125c0 13.851562 11.269531 25.121094 25.121094 25.121094h22.226562v1.113281c0 13.132813 8.894532 24.492187 21.636719 27.625.601563.144531 1.203125.21875 1.796875.21875 3.371094 0 6.4375-2.292969 7.277344-5.714844.988281-4.019531-1.472656-8.082031-5.492188-9.070312-6.019531-1.480469-10.21875-6.847657-10.21875-13.058594v-132.34375c0-7.410156 6.03125-13.441406 13.441406-13.441406h52.902344l148.921875 148.917969v79.890624l-69.546875-52.914062c-14.125-10.746094-31.675781-16.664062-49.421875-16.664062h-52.863281c-4.144531 0-7.5 3.355468-7.5 7.5 0 4.144531 3.355469 7.5 7.5 7.5h52.863281c14.484375 0 28.808594 4.832031 40.339844 13.601562l89.605469 68.175781c7.359375 5.601563 16.101562 8.460938 24.925781 8.460938 6.234375 0 12.511719-1.429688 18.367187-4.332031 13.289063-6.585938 21.84375-19.488282 22.824219-34.121094l65.183594 65.183594c8.871094 8.867187 20.664063 13.753906 33.210937 13.753906h34.191407c8.023437 0 15.191406-4.789063 18.261719-12.203125 3.070312-7.410157 1.390624-15.867188-4.285157-21.539063zm5.917969-23.925781c26.832031-26.835938 41.613281-62.515625 41.613281-100.464844 0-37.953125-14.78125-73.628906-41.613281-100.464844-2.691406-2.691406-2.691406-7.074219-.003906-9.761719 1.347656-1.347656 3.117187-2.019531 4.882812-2.019531 1.769532 0 3.539063.671875 4.882813 2.015625 29.394531 29.394532 45.582031 68.542969 45.582031 110.230469 0 41.691406-16.1875 80.835937-45.582031 110.230469-1.304688 1.304687-3.035157 2.019531-4.882813 2.019531-1.84375 0-3.574218-.71875-4.878906-2.019531-2.691406-2.695313-2.691406-7.074219 0-9.765625zm-47.867188-47.863281c14.03125-14.03125 21.757813-32.710938 21.757813-52.601563s-7.726563-38.574219-21.757813-52.601563c-1.304687-1.304687-2.019531-3.039062-2.019531-4.882812s.71875-3.578125 2.019531-4.882812c1.347657-1.34375 3.113282-2.019532 4.882813-2.019532s3.535156.675782 4.882813 2.019532c34.386718 34.390624 34.386718 90.34375 0 124.730468-1.304688 1.304688-3.039063 2.019532-4.882813 2.019532s-3.578125-.71875-4.882813-2.019532c-2.691406-2.691406-2.6875-7.070312 0-9.761718zm-346.441406-79.585938h-13.507812c-4.144532 0-7.5 3.355469-7.5 7.5s3.355468 7.5 7.5 7.5h13.507812v23.96875h-13.507812c-4.144532 0-7.5 3.355469-7.5 7.5s3.355468 7.5 7.5 7.5h13.507812v21.402344h-22.226562c-5.582032 0-10.121094-4.539063-10.121094-10.121094v-76.53125c0-5.582031 4.539062-10.121094 10.121094-10.121094h22.226562zm230.261719-123.878906v117.128906l-66.515625-66.519531zm62.199219 292.761718c0 10.195313-5.453125 18.984376-14.589844 23.515626-9.132812 4.527343-19.433594 3.542968-27.546875-2.628907l-5.0625-3.847656v-76.304687l47.195313 47.195312v12.070312zm151.890625 63.828126c-.367188.882812-1.53125 2.941406-4.40625 2.941406h-34.191407c-8.539062 0-16.566406-3.324219-22.605468-9.363282l-77.878906-77.882812c-.003907-.003906-.007813-.007812-.011719-.007812l-62.183594-62.1875c-.003906 0-.007813-.007813-.011719-.007813l-230.191406-230.191406c-2.03125-2.03125-1.398438-4.308594-1.03125-5.195313.367188-.882812 1.527344-2.941406 4.402344-2.941406h34.191406c8.539062 0 16.566406 3.324219 22.605469 9.363281l370.277343 370.277344c2.03125 2.03125 1.402344 4.308594 1.035157 5.195313zm-282.574219-178.761719v-8.722657c0-4.144531-3.355469-7.5-7.5-7.5-4.140625 0-7.5 3.355469-7.5 7.5v8.722657c0 4.144531 3.359375 7.5 7.5 7.5 4.144531 0 7.5-3.355469 7.5-7.5zm0 0"/></svg>