<svg height="511pt" viewBox="0 -71 511.99962 511" width="511pt" xmlns="http://www.w3.org/2000/svg"><path d="m54.847656 131.140625h-29.726562c-9.730469 0-17.621094 7.886719-17.621094 17.617187v76.535157c0 9.730469 7.890625 17.621093 17.621094 17.621093h29.726562zm0 0" fill="#4e5660"/><path d="m203.523438 83.105469 89.609374-68.175781c22.214844-16.902344 54.175782-1.058594 54.175782 26.855468v287.140625c0 27.914063-31.960938 43.757813-54.175782 26.855469l-89.609374-68.175781c-12.902344-9.816407-28.667969-15.132813-44.878907-15.132813h-82.855469c-11.566406 0-20.941406-9.375-20.941406-20.945312v-132.34375c0-11.566406 9.375-20.945313 20.941406-20.945313h82.855469c16.210938 0 31.980469-5.3125 44.878907-15.132812zm0 0" fill="#a3defe"/><path d="m203.523438 287.605469 14.683593 11.171875c-36.160156-57.222656-48.539062-142.347656-47.699219-201.496094-3.90625.632812-7.871093.957031-11.863281.957031h-82.855469c-11.566406 0-20.941406 9.378907-20.941406 20.945313v132.347656c0 11.566406 9.375 20.941406 20.941406 20.941406h82.855469c16.210938 0 31.980469 5.316406 44.878907 15.132813zm0 0" fill="#7acefa"/><path d="m127.460938 197.75c0-11.316406-11.523438-20.492188-25.738282-20.492188-14.210937 0-25.734375 9.175782-25.734375 20.492188 0 11.320312 11.523438 20.496094 25.734375 20.496094 14.214844 0 25.738282-9.175782 25.738282-20.496094zm0 0" fill="#fff"/><path d="m266.949219 197.75c0-11.316406-11.519531-20.492188-25.734375-20.492188-14.210938 0-25.734375 9.175782-25.734375 20.492188 0 11.320312 11.523437 20.496094 25.734375 20.496094 14.214844 0 25.734375-9.175782 25.734375-20.496094zm0 0" fill="#fff"/><path d="m192.21875 182.003906c0-12.824218-9.289062-14.027344-20.746094-14.027344-11.460937 0-20.75 1.207032-20.75 14.027344 0 12.824219 9.289063 23.21875 20.75 23.21875 11.457032 0 20.746094-10.394531 20.746094-23.21875zm0 0" fill="#4e5660"/><path d="m293.132812 14.929688-8.019531 6.101562v328.648438l8.019531 6.101562c22.214844 16.902344 54.175782 1.058594 54.175782-26.855469v-287.140625c0-27.914062-31.960938-43.753906-54.175782-26.855468zm0 0" fill="#8eafe2"/><path d="m446.539062 306.777344c-3.6875 0-7.371093-1.40625-10.183593-4.21875-5.625-5.625-5.625-14.746094 0-20.371094 25.417969-25.417969 39.417969-59.214844 39.417969-95.160156 0-35.949219-14-69.746094-39.417969-95.164063-5.625-5.625-5.625-14.746093 0-20.371093 5.625-5.621094 14.742187-5.621094 20.371093 0 63.703126 63.707031 63.703126 167.363281 0 231.066406-2.816406 2.8125-6.5 4.21875-10.1875 4.21875zm0 0" fill="#eea849"/><path d="m473.980469 209.039062c-4.511719 27.582032-17.476563 53-37.625 73.148438-5.625 5.625-5.625 14.746094 0 20.371094 2.8125 2.8125 6.5 4.21875 10.183593 4.21875 3.6875 0 7.371094-1.40625 10.1875-4.21875 20.28125-20.285156 34.097657-44.621094 41.464844-70.425782-11.386718-3.761718-19.378906-12.929687-24.210937-23.09375zm0 0" fill="#e9901b"/><path d="m398.675781 258.914062c-3.6875 0-7.371093-1.40625-10.183593-4.21875-5.625-5.625-5.625-14.746093 0-20.371093 26.078124-26.082031 26.078124-68.515625 0-94.597657-5.625-5.625-5.625-14.746093 0-20.371093s14.742187-5.621094 20.367187 0c37.3125 37.316406 37.3125 98.027343 0 135.339843-2.8125 2.8125-6.496094 4.21875-10.183594 4.21875zm0 0" fill="#f7ef87"/><path d="m407.511719 195.390625c-1.78125 14.242187-8.109375 28.019531-19.019531 38.933594-5.625 5.625-5.625 14.746093 0 20.371093 2.8125 2.8125 6.496093 4.21875 10.183593 4.21875s7.371094-1.40625 10.183594-4.21875c13.816406-13.820312 22.503906-30.847656 26.089844-48.707031-11.539063.472657-20.632813-3.921875-27.4375-10.597656zm0 0" fill="#efd176"/><path d="m414.164062 114.050781c-8.542968-8.535156-22.441406-8.535156-30.976562.003907-8.542969 8.539062-8.542969 22.4375 0 30.976562 23.15625 23.15625 23.15625 60.835938 0 83.988281-4.136719 4.140625-6.417969 9.640625-6.417969 15.492188 0 5.847656 2.28125 11.347656 6.417969 15.488281 4.140625 4.136719 9.640625 6.414062 15.488281 6.414062 5.847657 0 11.347657-2.277343 15.488281-6.417968 40.234376-40.234375 40.234376-105.707032 0-145.945313zm-10.605468 135.339844c-1.304688 1.304687-3.039063 2.023437-4.882813 2.023437s-3.578125-.71875-4.882812-2.023437c-1.304688-1.304687-2.023438-3.035156-2.023438-4.878906 0-1.847657.71875-3.578125 2.023438-4.882813 29.003906-29.007812 29.003906-76.199218 0-105.203125-2.691407-2.691406-2.691407-7.074219 0-9.765625 1.347656-1.347656 3.113281-2.019531 4.882812-2.019531 1.765625 0 3.535157.671875 4.878907 2.019531 34.390624 34.386719 34.390624 90.34375.003906 124.730469zm-297.53125-68.339844c4.140625 0 7.5-3.355469 7.5-7.5v-11.042969c0-4.144531-3.359375-7.5-7.5-7.5-4.144532 0-7.5 3.355469-7.5 7.5v11.042969c0 4.144531 3.355468 7.5 7.5 7.5zm225.855468-176.21875c-14.144531-7.011719-30.730468-5.425781-43.292968 4.128907l-89.605469 68.179687c-11.527344 8.769531-25.855469 13.597656-40.339844 13.597656h-39.792969c-4.144531 0-7.5 3.359375-7.5 7.5 0 4.144531 3.355469 7.5 7.5 7.5h39.792969c17.746094 0 35.296875-5.917969 49.421875-16.660156l69.546875-52.914063v298.382813l-69.546875-52.910156c-14.125-10.746094-31.675781-16.664063-49.421875-16.664063h-82.855469c-7.410156 0-13.441406-6.03125-13.441406-13.445312v-132.34375c0-7.414063 6.03125-13.445313 13.441406-13.445313h7.183594c4.144532 0 7.5-3.355469 7.5-7.5 0-4.140625-3.355468-7.5-7.5-7.5h-7.183594c-15.683593 0-28.441406 12.761719-28.441406 28.445313v4.457031h-22.226562c-13.851563 0-25.121094 11.265625-25.121094 25.117187v76.535157c0 13.851562 11.269531 25.121093 25.121094 25.121093h22.226562v1.113282c0 15.6875 12.757813 28.445312 28.441406 28.445312h82.855469c14.484375 0 28.8125 4.828125 40.339844 13.601563l89.605469 68.175781c7.359375 5.601562 16.101562 8.460938 24.925781 8.460938 6.234375 0 12.511719-1.429688 18.367187-4.332032 14.140626-7.007812 22.925782-21.167968 22.925782-36.953125v-9.714843c0-4.144532-3.359375-7.5-7.5-7.5-4.144532 0-7.5 3.355468-7.5 7.5v9.714843c0 10.195313-5.453125 18.984375-14.589844 23.515625-9.136719 4.527344-19.433594 3.542969-27.546875-2.628906l-5.058594-3.851562v-321.210938l5.058594-3.851562c8.117187-6.171876 18.414063-7.15625 27.546875-2.625 9.136719 4.527343 14.589844 13.316406 14.589844 23.511718v242.050782c0 4.144531 3.355468 7.5 7.5 7.5 4.140625 0 7.5-3.355469 7.5-7.5v-242.050782c0-15.785156-8.785156-29.941406-22.925782-36.953125zm-284.535156 155.210938h-13.507812c-4.144532 0-7.5 3.355469-7.5 7.5 0 4.140625 3.355468 7.5 7.5 7.5h13.507812v23.96875h-13.507812c-4.144532 0-7.5 3.355469-7.5 7.5 0 4.140625 3.355468 7.5 7.5 7.5h13.507812v21.402343h-22.226562c-5.582032 0-10.121094-4.542968-10.121094-10.121093v-76.535157c0-5.578124 4.539062-10.117187 10.121094-10.117187h22.226562zm197.066406 13.507812v-11.042969c0-4.144531-3.359374-7.5-7.5-7.5-4.144531 0-7.5 3.355469-7.5 7.5v11.042969c0 4.144531 3.355469 7.5 7.5 7.5 4.140626 0 7.5-3.355469 7.5-7.5zm217.613282-107.359375c-8.539063-8.535156-22.4375-8.539062-30.976563 0-8.539062 8.539063-8.539062 22.4375 0 30.976563 24 24.003906 37.222657 55.914062 37.222657 89.859375 0 33.941406-13.222657 65.855468-37.222657 89.859375-8.539062 8.539062-8.539062 22.433593 0 30.976562 4.140625 4.136719 9.640625 6.414063 15.488281 6.414063 5.847657 0 11.347657-2.277344 15.488282-6.414063 66.628906-66.628906 66.628906-175.042969 0-241.671875zm-10.605469 231.0625c-1.304687 1.304688-3.039063 2.023438-4.882813 2.023438s-3.578124-.71875-4.882812-2.023438c-2.691406-2.691406-2.691406-7.070312 0-9.761718 26.835938-26.835938 41.617188-62.515626 41.617188-100.464844 0-37.953125-14.78125-73.632813-41.617188-100.46875-2.691406-2.691406-2.691406-7.070313 0-9.761719 1.347656-1.34375 3.117188-2.019531 4.882812-2.019531 1.769532 0 3.539063.675781 4.882813 2.019531 60.78125 60.78125 60.78125 159.679687 0 220.457031zm-251.703125-115.25c0-21.527344-19.792969-21.527344-28.25-21.527344-8.453125 0-28.246094 0-28.246094 21.527344 0 16.9375 12.671875 30.71875 28.246094 30.71875 15.578125 0 28.25-13.78125 28.25-30.71875zm-41.496094 0c0-4.480468 0-6.527344 13.25-6.527344 13.246094 0 13.246094 2.046876 13.246094 6.527344 0 8.667969-5.941406 15.71875-13.246094 15.71875-7.308594 0-13.25-7.050781-13.25-15.71875zm0 0"/></svg>