<?xml version="1.0" encoding="iso-8859-1"?>
<!-- Generator: Adobe Illustrator 19.0.0, SVG Export Plug-In . SVG Version: 6.00 Build 0)  -->
<svg version="1.1" id="Capa_1" xmlns="http://www.w3.org/2000/svg" xmlns:xlink="http://www.w3.org/1999/xlink" x="0px" y="0px"
	 viewBox="0 0 512 512" style="enable-background:new 0 0 512 512;" xml:space="preserve">
<g>
	<path style="fill:#DC5A64;" d="M404.347,498.636l7.5,5.864h43.73c0-73.044-29.29-105.061-52.403-118.96l-57.505,54.272
		L322.026,504.5h74.821L404.347,498.636z"/>
	<path style="fill:#DC5A64;" d="M107.654,498.902l7.5,5.598h74.821l-23.644-64.688l-57.505-54.272
		c-23.113,13.899-52.403,45.917-52.403,118.96h43.73L107.654,498.902z"/>
</g>
<polygon style="fill:#D4D2D3;" points="162.666,375.123 166.331,439.812 224.239,504.5 287.762,504.5 345.67,439.812 
	349.335,375.123 "/>
<path style="fill:#3A484A;" d="M403.175,385.54c-21.547,48.27-57.685,92.887-81.149,118.96h-34.264
	c30.131-46.789,50.496-97.648,61.573-129.377h26.382C375.717,375.123,388.136,376.487,403.175,385.54z"/>
<path style="fill:#BF4E57;" d="M120.329,396.395l-11.502-10.855c-23.113,13.899-52.403,45.917-52.403,118.96h26
	C82.424,446.239,101.058,414.079,120.329,396.395z"/>
<path style="fill:#3A484A;" d="M224.239,504.5h-34.264c-23.464-26.074-59.603-70.69-81.149-118.96
	c15.039-9.053,27.458-10.417,27.458-10.417h26.382C173.743,406.852,194.108,457.71,224.239,504.5z"/>
<path style="fill:#313D40;" d="M134.826,385.54L134.826,385.54c15.026-9.044,27.435-10.414,27.457-10.417h-25.999
	c0,0-1.175,0.13-3.233,0.57c-0.074,0.016-0.15,0.032-0.227,0.049c-0.555,0.121-1.171,0.265-1.841,0.433
	c-3.431,0.86-8.298,2.376-13.927,4.99c-0.893,0.415-1.804,0.855-2.732,1.327c-0.035,0.018-0.071,0.038-0.106,0.056
	c-1.746,0.89-3.549,1.882-5.391,2.991c2.258,5.06,4.685,10.075,7.232,15.037C122.314,394.053,128.781,389.175,134.826,385.54z"/>
<g>
	<path style="fill:#EFEDEE;" d="M256,401.186c-31.42,45.266-113.795,67.219-86.72-7.929l18.022-39.467L256,401.186z"/>
	<path style="fill:#EFEDEE;" d="M256,401.186c31.42,45.266,113.795,67.219,86.72-7.929l-18.022-39.467L256,401.186z"/>
</g>
<circle style="fill:#A36549;" cx="98.92" cy="66.946" r="59.45"/>
<path style="fill:#FF99B1;" d="M98.921,96.557c-16.327,0-29.611-13.283-29.611-29.611c0-16.327,13.283-29.611,29.611-29.611
	s29.611,13.283,29.611,29.611C128.533,83.273,115.249,96.557,98.921,96.557z"/>
<circle style="fill:#A36549;" cx="413.08" cy="66.946" r="59.45"/>
<path style="fill:#FF99B1;" d="M413.08,96.557c16.327,0,29.611-13.283,29.611-29.611c0-16.327-13.283-29.611-29.611-29.611
	s-29.611,13.283-29.611,29.611C383.468,83.273,396.752,96.557,413.08,96.557z"/>
<path style="fill:#D4835F;" d="M256,401.186c-178.702,0-247.346-86.133-218.631-153.165c3.421-7.985,5.559-16.474,5.843-25.157
	C48.613,57.756,148.278,12.428,256,12.428s207.387,45.329,212.788,210.436c0.284,8.683,2.422,17.171,5.843,25.157
	C503.346,315.053,434.703,401.186,256,401.186z"/>
<path style="fill:#A36549;" d="M67.369,248.021c3.421-7.985,5.559-16.474,5.843-25.157C78.362,65.451,169.193,16.914,271,12.731
	c-4.977-0.205-9.979-0.304-15-0.304c-107.723,0-207.387,45.329-212.788,210.437c-0.284,8.683-2.422,17.171-5.843,25.157
	C8.655,315.053,77.298,401.186,256,401.186c5.093,0,10.085-0.079,15-0.216C103.476,396.283,39.473,313.143,67.369,248.021z"/>
<g>
	<path style="fill:#DC5A64;" d="M166.331,238.502H138.96c-4.142,0-7.5,3.358-7.5,7.5c0,4.143,3.358,7.5,7.5,7.5h27.372
		c4.142,0,7.5-3.357,7.5-7.5C173.831,241.861,170.473,238.502,166.331,238.502z"/>
	<path style="fill:#DC5A64;" d="M373.041,238.502H345.67c-4.142,0-7.5,3.358-7.5,7.5c0,4.143,3.358,7.5,7.5,7.5h27.372
		c4.142,0,7.5-3.357,7.5-7.5C380.541,241.861,377.183,238.502,373.041,238.502z"/>
</g>
<path style="fill:#EFEDEE;" d="M274.264,242.811v15.545c0,5.55-4.499,10.049-10.049,10.049h-16.428
	c-5.55,0-10.049-4.499-10.049-10.049v-15.545"/>
<path d="M160.139,216.464v-20.096c0-4.142-3.358-7.5-7.5-7.5s-7.5,3.358-7.5,7.5v20.096c0,4.142,3.358,7.5,7.5,7.5
	S160.139,220.606,160.139,216.464z"/>
<path d="M366.849,216.464v-20.096c0-4.142-3.358-7.5-7.5-7.5s-7.5,3.358-7.5,7.5v20.096c0,4.142,3.358,7.5,7.5,7.5
	S366.849,220.606,366.849,216.464z"/>
<path d="M279.805,201.285c0-8.351-47.623-8.351-47.623,0c0,8.352,10.661,15.122,23.812,15.122
	C269.145,216.407,279.805,209.637,279.805,201.285z"/>
<path d="M224.819,230.22c-2.769-3.081-7.51-3.334-10.592-0.566c-3.081,2.769-3.334,7.511-0.566,10.592
	c4.349,4.84,10.15,8.136,16.543,9.544l0.122,8.919c0.133,9.676,8.112,17.439,17.788,17.307l16.427-0.225
	c9.676-0.133,17.439-8.112,17.307-17.788l-0.122-8.919c6.352-1.582,12.06-5.037,16.275-9.994c2.683-3.156,2.3-7.889-0.856-10.572
	c-3.156-2.683-7.889-2.299-10.572,0.856c-3.015,3.547-7.586,5.621-12.539,5.689s-9.578-1.88-12.691-5.343
	c-0.024-0.027-0.051-0.05-0.076-0.076c-1.431-1.531-3.507-2.432-5.605-2.403c-2.136,0.029-4.226,1.005-5.611,2.634
	c-3.016,3.547-7.586,5.621-12.539,5.689C232.556,235.63,227.93,233.683,224.819,230.22z M264.208,260.904H247.78
	c-1.405,0-2.549-1.144-2.549-2.549v-8.919c3.883-0.911,7.533-2.523,10.763-4.753c3.23,2.229,6.88,3.842,10.763,4.753v8.919
	C266.757,259.761,265.613,260.904,264.208,260.904z"/>
<circle cx="255.99" cy="442.53" r="8.521"/>
<circle cx="255.99" cy="474.48" r="8.521"/>
<path d="M472.736,328.163c17.349-26.306,20.468-55.817,8.783-83.096c-3.237-7.559-5.001-15.112-5.24-22.449
	c-1.31-40.045-8.201-74.8-20.554-104.077c15.315-12.666,24.294-31.529,24.294-51.596C480.019,30.031,449.987,0,413.072,0
	c-19.837,0-38.564,8.822-51.229,23.869c-29.82-12.583-65.225-18.941-105.851-18.941c-40.625,0-76.029,6.358-105.85,18.941
	C137.479,8.822,118.753,0,98.915,0C62.001,0,31.969,30.031,31.969,66.945c0,20.067,8.979,38.931,24.294,51.596
	C43.91,147.818,37.02,182.573,35.71,222.618c-0.24,7.339-2.003,14.892-5.241,22.449c-11.478,26.792-8.651,55.852,7.958,81.825
	c2.232,3.489,6.87,4.509,10.359,2.278c3.49-2.232,4.51-6.87,2.278-10.359c-13.851-21.66-16.269-45.752-6.808-67.838
	c3.975-9.278,6.143-18.653,6.444-27.865C53.134,148.75,78.982,73.13,150.897,39.907c0.109-0.05,0.21-0.112,0.316-0.167
	c28.812-13.187,63.755-19.813,104.78-19.813c41.026,0,75.971,6.626,104.783,19.813c0.105,0.055,0.206,0.116,0.314,0.166
	c72.066,33.118,97.765,108.905,100.196,183.201c0.301,9.209,2.469,18.584,6.444,27.865c9.635,22.492,6.966,46.972-7.517,68.931
	c-13.93,21.122-38.049,38.989-69.748,51.67c-42.544,17.007-88.964,22.112-134.473,22.112c-62.483,0-136.039-8.983-184.934-51.984
	c-0.573-0.504-1.141-1.012-1.705-1.526c-3.062-2.79-7.806-2.568-10.595,0.493c-2.79,3.062-2.568,7.806,0.493,10.595
	c12.213,11.126,27.082,20.738,44.223,28.758C78.231,395.819,48.917,430.175,48.917,504.5c0,4.142,3.357,7.5,7.5,7.5H455.57
	c4.143,0,7.5-3.358,7.5-7.5c0-74.267-29.268-108.627-54.499-124.44C437.03,366.678,459.06,348.9,472.736,328.163z M62.858,104.333
	c-10.07-9.714-15.889-23.163-15.889-37.388C46.969,38.303,70.272,15,98.915,15c14.027,0,27.341,5.687,37.033,15.539
	c-0.151,0.079-0.295,0.164-0.445,0.243c-1.217,0.641-12.669,7.821-12.995,7.551c-6.6-5.454-14.899-8.499-23.594-8.499
	c-20.463,0-37.11,16.648-37.11,37.111c0,8.859,3.142,17.278,8.769,23.924c-0.055,0.088-0.108,0.179-0.163,0.267
	C67.734,95.438,65.187,99.834,62.858,104.333z M106.478,49.927c-7.806,6.39-14.961,13.466-21.49,21.192
	c-0.01,0.013-0.021,0.025-0.031,0.037c-1.729,2.058-5.237,6.495-5.322,6.605c-1.839-3.263-2.831-6.972-2.831-10.816
	c0-12.192,9.919-22.111,22.11-22.111c3.741,0,7.362,0.946,10.568,2.699C108.473,48.322,107.468,49.117,106.478,49.927z
	 M376.039,30.539C385.731,20.687,399.045,15,413.072,15c28.644,0,51.946,23.303,51.946,51.945c0,14.225-5.818,27.674-15.888,37.387
	c0.71-0.716-7.15-12.553-7.554-13.198c-0.055-0.087-0.107-0.177-0.162-0.264c5.627-6.646,8.769-15.065,8.769-23.925
	c0-20.463-16.647-37.111-37.11-37.111c-8.695,0-16.995,3.045-23.594,8.5c-2.372-1.517-11.302-6.661-12.985-7.546
	C376.341,30.707,376.194,30.62,376.039,30.539z M432.353,77.761c-1.71-2.25-5.344-6.632-5.357-6.646
	c-6.528-7.724-13.682-14.799-21.487-21.188c-0.989-0.81-1.994-1.604-3.004-2.393c3.206-1.753,6.827-2.699,10.568-2.699
	c12.191,0,22.11,9.919,22.11,22.111C435.184,70.79,434.192,74.498,432.353,77.761z M340.623,420.637
	c-0.316,4.554-1.63,9.325-5.653,11.95c-3.633,2.371-8.365,2.745-12.578,2.344c-0.01-0.001-0.021,0-0.031,0
	c-0.029-0.002-0.057-0.007-0.086-0.009c-14.242-1.047-34.931-10.879-50.44-26.467c5.999-0.176,11.992-0.491,17.981-0.854
	c16.778-1.086,32.74-3.001,47.838-5.74C339.406,407.748,341.06,414.33,340.623,420.637z M306.297,457.071
	c-6.988,13.626-14.504,26.978-22.678,39.929h-55.251c-0.526-0.834-14.172-23.681-19.902-34.583
	c-2.477-4.712-4.889-9.458-7.237-14.235c19.041-4.683,40.033-17.878,54.558-34.578c0.067-0.077,0.14-0.152,0.207-0.229
	c0.069,0.08,0.144,0.156,0.212,0.235c12.693,14.589,30.32,26.5,47.272,32.399c0.014,0.005,0.028,0.01,0.042,0.015
	c2.433,0.845,4.85,1.569,7.24,2.157C309.298,451.157,307.81,454.12,306.297,457.071z M173.64,428.152
	c-2.008-3.459-2.413-7.59-2.173-11.514c0.064-1.051,2.014-14.947,2.871-14.792c20.453,3.709,42.509,5.923,65.814,6.609
	c-15.554,15.633-36.316,25.477-50.563,26.476C183.421,435.364,176.951,433.855,173.64,428.152z M115.148,497v-47.264
	c0-4.142-3.358-7.5-7.5-7.5s-7.5,3.358-7.5,7.5V497H64.025c1.656-56.716,22.081-85.628,41.689-100.338
	c0.054,0.113,0.113,0.225,0.167,0.337c6.758,14.065,14.592,27.622,23.051,40.727c13.283,20.578,28.152,40.117,44.039,58.749
	c0.147,0.172,0.298,0.354,0.445,0.526L115.148,497L115.148,497z M193.322,497c-0.026-0.029-0.051-0.057-0.077-0.086
	c-19.34-21.724-37.348-44.729-52.973-69.281c-2.009-3.156-22.706-38.386-21.703-38.879c0.869-0.428,1.743-0.839,2.623-1.233
	c11.9,4.453,24.771,8.25,38.393,11.327c-0.527-0.119-2.65,12.403-2.786,13.637c-2.02,18.309,9.115,36.766,28.624,37.504
	c0.479,0.995,0.964,1.975,1.445,2.963c7.316,15.011,15.217,29.753,23.853,44.048H193.322z M326.565,449.989
	c9.079-0.341,18.218-3.903,23.587-11.54c6.055-8.613,6.186-19.866,4.486-29.857c-0.115-0.678-1.948-9.797-2.232-9.732
	c12.716-2.876,25.291-6.486,37.518-11.021c0.289-0.107,0.584-0.209,0.872-0.317c0.88,0.394,1.754,0.805,2.624,1.233
	c0.616,0.491-6.987,13.835-7.872,15.467c-11.322,20.875-24.691,40.57-39.166,59.376c-8.815,11.453-18.03,22.525-27.639,33.318
	c-0.026,0.029-0.051,0.057-0.077,0.085h-17.399C301.633,496.394,319.16,465.392,326.565,449.989z M447.963,497H411.84v-47.264
	c0-4.142-3.358-7.5-7.5-7.5s-7.5,3.358-7.5,7.5V497h-58.269c0.147-0.172,0.298-0.354,0.445-0.526
	c7.595-8.878,14.91-17.99,21.971-27.297c17.06-22.527,32.814-46.571,45.119-72.178c0.054-0.113,0.113-0.225,0.167-0.337
	C425.882,411.372,446.307,440.284,447.963,497z"/>
<g>
</g>
<g>
</g>
<g>
</g>
<g>
</g>
<g>
</g>
<g>
</g>
<g>
</g>
<g>
</g>
<g>
</g>
<g>
</g>
<g>
</g>
<g>
</g>
<g>
</g>
<g>
</g>
<g>
</g>
</svg>
