<?xml version="1.0" encoding="iso-8859-1"?>
<!-- Generator: Adobe Illustrator 19.0.0, SVG Export Plug-In . SVG Version: 6.00 Build 0)  -->
<svg version="1.1" id="Capa_1" xmlns="http://www.w3.org/2000/svg" xmlns:xlink="http://www.w3.org/1999/xlink" x="0px" y="0px"
	 viewBox="0 0 511.999 511.999" style="enable-background:new 0 0 511.999 511.999;" xml:space="preserve">
<g>
	<g>
		<g>
			<path d="M186.684,453.811c4.013,3.627,8.149,6.988,12.295,9.989c1.329,0.962,2.868,1.426,4.393,1.426
				c2.323,0,4.614-1.076,6.081-3.102c2.429-3.355,1.679-8.044-1.677-10.473c-3.709-2.685-7.421-5.702-11.033-8.968
				c-3.072-2.776-7.813-2.538-10.594,0.535C183.371,446.291,183.612,451.033,186.684,453.811z"/>
			<path d="M181.806,299.042c-4.143,0-7.5,3.358-7.5,7.5v12.316c0,4.142,3.357,7.5,7.5,7.5c4.142,0,7.5-3.358,7.5-7.5v-12.316
				C189.306,302.399,185.948,299.042,181.806,299.042z"/>
			<path d="M152.527,398.355c-3.53,2.166-4.637,6.784-2.471,10.315c6.883,11.22,14.382,21.488,22.289,30.517
				c1.483,1.693,3.558,2.559,5.645,2.559c1.754,0,3.516-0.612,4.938-1.857c3.116-2.729,3.43-7.467,0.701-10.584
				c-7.352-8.395-14.347-17.977-20.789-28.479C160.675,397.294,156.056,396.19,152.527,398.355z"/>
			<path d="M443.074,123.956c-50.982-12.655-103.18-20.019-155.578-22.13c8.709-25.854,25.796-41.844,38.874-44.099
				c15.796-2.724,26.432-17.79,23.709-33.586c-1.318-7.653-5.537-14.335-11.877-18.813c-6.345-4.481-14.056-6.221-21.711-4.897
				c-14.946,2.577-29.952,9.934-43.393,21.275c-3.165,2.671-3.566,7.403-0.896,10.568c2.671,3.166,7.402,3.567,10.569,0.896
				c11.405-9.624,23.946-15.833,36.271-17.958c3.706-0.642,7.438,0.2,10.506,2.368c3.068,2.167,5.109,5.402,5.749,9.108
				c1.317,7.646-3.831,14.938-11.477,16.256c-10.601,1.828-21.735,8.904-31.353,19.924c-9.159,10.494-16.196,23.708-20.547,38.486
				c-9.69-0.197-19.383-0.226-29.074-0.063c3.961-16.708,10.729-32.351,19.831-45.669c2.337-3.42,1.459-8.087-1.96-10.424
				c-3.42-2.337-8.086-1.459-10.425,1.96c-10.839,15.859-18.694,34.617-22.911,54.557c-53.365,1.953-106.541,9.352-158.457,22.239
				c-19.838,4.924-33.693,22.639-33.693,43.08v21.098c0,24.732,14.852,46.047,36.098,55.533
				c3.254,52.213,17.818,106.011,41.218,152.027c1.324,2.603,3.959,4.102,6.691,4.102c1.144,0,2.305-0.262,3.394-0.816
				c3.692-1.877,5.163-6.393,3.286-10.085c-21.676-42.624-35.463-92.204-39.234-140.682c3.047,0.472,6.167,0.719,9.344,0.719
				h273.783c4.142,0,7.5-3.358,7.5-7.5s-3.358-7.5-7.5-7.5H96.03c-25.253,0-45.798-20.545-45.798-45.798v-21.098
				c0-13.533,9.173-25.261,22.307-28.521c120.022-29.793,246.9-29.793,366.922,0c13.134,3.26,22.307,14.988,22.307,28.521v21.098
				c0,25.253-20.545,45.798-45.798,45.798H405.17c-4.143,0-7.5,3.358-7.5,7.5s3.357,7.5,7.5,7.5h10.801
				c3.175,0,6.293-0.247,9.337-0.718c-4.684,60.426-24.725,121.605-55.671,169.289c-16.1,24.807-34.039,44.358-53.32,58.111
				C296.424,489.804,276.131,497,256.002,497c-40.031,0-81.926-29.718-114.945-81.533c-2.227-3.493-6.861-4.519-10.356-2.294
				c-3.493,2.226-4.52,6.862-2.295,10.355c17.208,27.003,36.614,48.421,57.68,63.66c22.761,16.464,46.283,24.812,69.915,24.812
				c23.315,0,46.54-8.133,69.026-24.174c20.821-14.852,40.063-35.765,57.191-62.157c33.245-51.226,54.419-117.298,58.444-181.997
				c21.25-9.486,36.105-30.803,36.105-55.537v-21.098C476.768,146.595,462.912,128.88,443.074,123.956z"/>
			<path d="M337.693,318.857v-12.316c0-4.142-3.357-7.5-7.5-7.5c-4.143,0-7.5,3.358-7.5,7.5v12.316c0,4.142,3.357,7.5,7.5,7.5
				C334.335,326.357,337.693,323,337.693,318.857z"/>
			<path d="M112.44,201.552c1.465,1.465,3.384,2.197,5.304,2.197c1.919,0,3.839-0.732,5.304-2.197l9.167-9.166l9.166,9.166
				c1.465,1.464,3.385,2.197,5.304,2.197s3.839-0.732,5.304-2.197c2.929-2.929,2.929-7.678,0-10.606l-9.167-9.167l9.167-9.167
				c2.926-2.928,2.926-7.677-0.002-10.606c-2.929-2.929-7.677-2.929-10.607,0l-9.166,9.166l-9.167-9.166
				c-2.93-2.929-7.678-2.929-10.607,0c-2.929,2.929-2.929,7.678,0,10.606l9.167,9.167l-9.167,9.167
				C109.511,193.876,109.511,198.624,112.44,201.552z"/>
			<path d="M256,335.815c9.664,0,18.854-4.186,25.215-11.484c2.722-3.123,2.396-7.86-0.727-10.582
				c-3.125-2.721-7.862-2.396-10.582,0.727c-3.511,4.028-8.579,6.339-13.906,6.339c-5.327,0-10.396-2.311-13.907-6.339
				c-2.723-3.123-7.46-3.448-10.582-0.726c-3.123,2.722-3.447,7.46-0.726,10.582C237.146,331.629,246.336,335.815,256,335.815z"/>
			<path d="M364.511,209.488c1.465,1.464,3.385,2.197,5.304,2.197s3.839-0.732,5.304-2.197l9.166-9.166l9.166,9.166
				c1.465,1.464,3.385,2.197,5.304,2.197c1.919,0,3.839-0.732,5.304-2.197c2.929-2.929,2.929-7.678,0-10.606l-9.167-9.167
				l9.167-9.167c2.929-2.929,2.929-7.678,0-10.606c-2.93-2.929-7.678-2.929-10.607,0l-9.166,9.166l-18.333-18.333l9.167-9.167
				c2.929-2.929,2.929-7.678,0-10.606c-2.93-2.929-7.678-2.929-10.607,0l-9.166,9.167l-9.167-9.167
				c-2.93-2.929-7.678-2.929-10.607,0c-2.929,2.929-2.929,7.678,0,10.606l9.167,9.167l-18.333,18.333l-9.166-9.166
				c-2.93-2.929-7.678-2.929-10.607,0s-2.929,7.678,0,10.606l9.167,9.167l-9.167,9.167c-2.929,2.929-2.929,7.678,0,10.606
				c1.465,1.464,3.385,2.197,5.304,2.197c1.919,0,3.839-0.732,5.304-2.197l9.166-9.166l9.166,9.166
				c1.465,1.465,3.384,2.197,5.304,2.197c1.919,0,3.839-0.732,5.304-2.197c2.929-2.929,2.929-7.678,0-10.606l-9.167-9.167
				l18.333-18.333l18.333,18.333l-9.167,9.167C361.582,201.81,361.582,206.559,364.511,209.488z"/>
		</g>
	</g>
</g>
<g>
</g>
<g>
</g>
<g>
</g>
<g>
</g>
<g>
</g>
<g>
</g>
<g>
</g>
<g>
</g>
<g>
</g>
<g>
</g>
<g>
</g>
<g>
</g>
<g>
</g>
<g>
</g>
<g>
</g>
</svg>
