<svg height="512pt" viewBox="0 0 512 512" width="512pt" xmlns="http://www.w3.org/2000/svg"><path d="m474.847656 200.066406h-44.96875c-3.058594-9.519531-6.871094-18.699218-11.378906-27.46875l31.796875-31.796875c11.582031-11.578125 11.582031-30.355469 0-41.933593l-37.164063-37.164063c-11.578124-11.582031-30.355468-11.582031-41.933593 0l-31.796875 31.796875c-8.769532-4.507812-17.949219-8.320312-27.46875-11.378906v-44.96875c0-16.375-13.277344-29.652344-29.65625-29.652344h-52.554688c-16.378906 0-29.65625 13.277344-29.65625 29.652344v44.96875c-9.519531 3.0625-18.699218 6.871094-27.46875 11.378906l-31.796875-31.796875c-11.578125-11.582031-30.355469-11.582031-41.933593 0l-37.164063 37.164063c-11.582031 11.578124-11.582031 30.355468 0 41.933593l31.796875 31.800781c-4.507812 8.765626-8.320312 17.949219-11.378906 27.46875h-44.96875c-16.375 0-29.652344 13.273438-29.652344 29.652344v52.558594c0 16.375 13.277344 29.652344 29.652344 29.652344h44.96875c3.0625 9.519531 6.871094 18.703125 11.378906 27.46875l-31.796875 31.796875c-11.582031 11.582031-11.582031 30.355469 0 41.9375l37.164063 37.164062c11.578124 11.578125 30.355468 11.578125 41.933593 0l31.800781-31.800781c8.765626 4.507812 17.949219 8.320312 27.46875 11.378906v44.96875c0 16.375 13.273438 29.652344 29.652344 29.652344h52.558594c16.375 0 29.652344-13.277344 29.652344-29.652344v-44.96875c9.519531-3.058594 18.703125-6.871094 27.46875-11.378906l31.796875 31.796875c11.582031 11.582031 30.355469 11.582031 41.9375 0l37.164062-37.164063c11.578125-11.578124 11.578125-30.355468 0-41.933593l-31.800781-31.800781c4.507812-8.765626 8.320312-17.949219 11.378906-27.46875h44.96875c16.378906 0 29.652344-13.273438 29.652344-29.652344v-52.558594c0-16.375-13.277344-29.652344-29.652344-29.652344zm0 0" fill="#a3defe"/><path d="m183.023438 88.597656c-3.527344 1.535156-7.015626 3.148438-10.421876 4.902344l-31.800781-31.796875c-11.578125-11.582031-30.355469-11.582031-41.933593 0l-37.164063 37.164063c-11.582031 11.578124-11.582031 30.355468 0 41.933593l31.796875 31.800781c-4.507812 8.765626-8.320312 17.949219-11.378906 27.46875h-44.96875c-16.375 0-29.652344 13.273438-29.652344 29.652344v52.558594c0 16.375 13.277344 29.652344 29.652344 29.652344h44.96875c3.0625 9.519531 6.871094 18.703125 11.378906 27.46875l-31.796875 31.796875c-11.582031 11.582031-11.582031 30.355469 0 41.9375l37.164063 37.164062c11.578124 11.578125 30.355468 11.578125 41.933593 0l31.800781-31.800781c8.765626 4.507812 17.949219 8.320312 27.46875 11.378906v44.96875c0 16.375 13.273438 29.652344 29.652344 29.652344h52.558594c16.375 0 29.652344-13.277344 29.652344-29.652344v-44.96875c5.152344-1.65625 10.195312-3.550781 15.132812-5.636718-175.488281-58.636719-197.054687-228.164063-144.042968-335.644532zm0 0" fill="#7acefa"/><path d="m363.96875 256c0 59.628906-48.339844 107.96875-107.96875 107.96875s-107.96875-48.339844-107.96875-107.96875 48.339844-107.96875 107.96875-107.96875 107.96875 48.339844 107.96875 107.96875zm0 0" fill="#fcf2d0"/><path d="m157.855469 211.007812c-6.289063 13.699219-9.824219 28.929688-9.824219 44.992188 0 46.324219 29.183594 85.820312 70.160156 101.148438-39.574218-42.050782-57.996094-94.421876-60.335937-146.140626zm0 0" fill="#f6e3a3"/><path d="m320.265625 256c0 35.492188-28.773437 64.265625-64.265625 64.265625s-64.265625-28.773437-64.265625-64.265625 28.773437-64.265625 64.265625-64.265625 64.265625 28.773437 64.265625 64.265625zm0 0" fill="#6a96d7"/><path d="m280.710938 256c0 13.648438-11.0625 24.710938-24.710938 24.710938s-24.710938-11.0625-24.710938-24.710938 11.0625-24.710938 24.710938-24.710938 24.710938 11.0625 24.710938 24.710938zm0 0" fill="#8ee2cf"/><path d="m256 90.085938c-4.140625 0-7.5-3.359376-7.5-7.5v-19.957032c0-4.144531 3.359375-7.5 7.5-7.5s7.5 3.355469 7.5 7.5v19.957032c0 4.140624-3.359375 7.5-7.5 7.5zm0 0" fill="#7acefa"/><g fill="#a3defe"><path d="m133.378906 140.878906c-1.921875 0-3.839844-.734375-5.304687-2.199218l-14.113281-14.109376c-2.929688-2.929687-2.929688-7.679687 0-10.605468 2.929687-2.929688 7.679687-2.929688 10.605468 0l14.113282 14.109375c2.929687 2.929687 2.929687 7.679687 0 10.605469-1.464844 1.464843-3.382813 2.199218-5.300782 2.199218zm0 0"/><path d="m82.585938 263.5h-19.957032c-4.144531 0-7.5-3.355469-7.5-7.5s3.355469-7.5 7.5-7.5h19.957032c4.140624 0 7.5 3.355469 7.5 7.5s-3.359376 7.5-7.5 7.5zm0 0"/><path d="m119.265625 400.234375c-1.917969 0-3.839844-.730469-5.300781-2.199219-2.929688-2.925781-2.929688-7.675781 0-10.605468l14.109375-14.109376c2.929687-2.929687 7.679687-2.929687 10.605469 0 2.929687 2.929688 2.929687 7.675782 0 10.605469l-14.109376 14.113281c-1.464843 1.464844-3.386718 2.195313-5.304687 2.195313zm0 0"/><path d="m256 456.871094c-4.140625 0-7.5-3.355469-7.5-7.5v-19.957032c0-4.140624 3.359375-7.5 7.5-7.5s7.5 3.359376 7.5 7.5v19.957032c0 4.144531-3.359375 7.5-7.5 7.5zm0 0"/></g><path d="m392.734375 400.234375c-1.917969 0-3.839844-.730469-5.300781-2.195313l-14.113282-14.113281c-2.929687-2.929687-2.929687-7.675781 0-10.605469 2.929688-2.929687 7.675782-2.929687 10.605469 0l14.113281 14.109376c2.929688 2.929687 2.929688 7.679687 0 10.605468-1.464843 1.46875-3.386718 2.199219-5.304687 2.199219zm0 0" fill="#7acefa"/><path d="m449.371094 263.5h-19.957032c-4.140624 0-7.5-3.355469-7.5-7.5s3.359376-7.5 7.5-7.5h19.957032c4.144531 0 7.5 3.355469 7.5 7.5s-3.355469 7.5-7.5 7.5zm0 0" fill="#7acefa"/><path d="m378.621094 140.878906c-1.917969 0-3.835938-.734375-5.300782-2.199218-2.929687-2.929688-2.929687-7.675782 0-10.605469l14.113282-14.113281c2.925781-2.925782 7.675781-2.929688 10.605468.003906 2.929688 2.925781 2.929688 7.675781 0 10.605468l-14.113281 14.109376c-1.464843 1.464843-3.382812 2.199218-5.304687 2.199218zm0 0" fill="#7acefa"/><path d="m435.289062 417.539062-27.457031 27.453126c-8.636719 8.640624-22.691406 8.640624-31.328125 0l-31.800781-31.796876c-2.304687-2.300781-5.832031-2.855468-8.730469-1.367187-8.414062 4.328125-17.277344 8-26.335937 10.910156-3.101563.996094-5.203125 3.882813-5.203125 7.140625v44.96875c0 12.214844-9.941406 22.152344-22.152344 22.152344h-52.558594c-12.214844 0-22.152344-9.9375-22.152344-22.152344v-44.96875c0-3.257812-2.105468-6.144531-5.207031-7.140625-9.058593-2.910156-17.917969-6.582031-26.332031-10.910156-2.898438-1.488281-6.429688-.9375-8.734375 1.367187l-31.796875 31.796876c-8.636719 8.640624-22.691406 8.640624-31.328125 0l-37.167969-37.164063c-4.183594-4.183594-6.488281-9.746094-6.488281-15.664063 0-5.914062 2.304687-11.476562 6.488281-15.660156l31.800782-31.800781c2.304687-2.304687 2.855468-5.835937 1.367187-8.730469-4.328125-8.410156-7.996094-17.273437-10.910156-26.335937-.996094-3.101563-3.882813-5.203125-7.140625-5.203125h-44.96875c-12.214844 0-22.152344-9.941406-22.152344-22.152344v-52.558594c0-12.214844 9.9375-22.152344 22.152344-22.152344h44.96875c3.257812 0 6.144531-2.105468 7.140625-5.207031 2.914062-9.0625 6.582031-17.925781 10.910156-26.332031 1.488281-2.898438.9375-6.429688-1.367187-8.734375l-22.835938-22.835937c-2.929688-2.925782-7.679688-2.925782-10.605469 0-2.929687 2.929687-2.929687 7.679687 0 10.609374l19.027344 19.023438c-2.867187 6-5.425781 12.183594-7.652344 18.476562h-39.585937c-20.484375-.003906-37.152344 16.664063-37.152344 37.152344v52.558594c0 20.484375 16.667969 37.152344 37.152344 37.152344h39.585937c2.226563 6.292968 4.785157 12.472656 7.652344 18.472656l-27.992187 27.988281c-7.015626 7.019531-10.882813 16.347657-10.882813 26.269531 0 9.925782 3.867187 19.257813 10.882813 26.273438l37.164062 37.164062c7.019531 7.015626 16.347656 10.882813 26.273438 10.882813 9.921874 0 19.253906-3.867187 26.269531-10.882813l27.992187-27.988281c6 2.863281 12.179688 5.425781 18.472656 7.648438v39.585937c0 20.488282 16.664063 37.152344 37.152344 37.152344h52.558594c20.484375 0 37.152344-16.664062 37.152344-37.152344v-39.585937c6.289062-2.226563 12.472656-4.785157 18.472656-7.648438l27.992188 27.988281c14.484374 14.484376 38.054687 14.484376 52.539062 0l27.457031-27.457031c2.929688-2.925781 2.929688-7.675781 0-10.605469-2.929687-2.929687-7.675781-2.929687-10.605469 0zm-179.289062-129.328124c17.761719 0 32.210938-14.449219 32.210938-32.210938s-14.449219-32.210938-32.210938-32.210938-32.210938 14.449219-32.210938 32.210938 14.449219 32.210938 32.210938 32.210938zm0-49.421876c9.488281 0 17.210938 7.722657 17.210938 17.210938s-7.722657 17.210938-17.210938 17.210938-17.210938-7.722657-17.210938-17.210938 7.722657-17.210938 17.210938-17.210938zm0 132.679688c63.667969 0 115.46875-51.796875 115.46875-115.46875s-51.800781-115.46875-115.46875-115.46875-115.46875 51.796875-115.46875 115.46875 51.800781 115.46875 115.46875 115.46875zm0-215.9375c55.398438 0 100.46875 45.070312 100.46875 100.46875s-45.070312 100.46875-100.46875 100.46875-100.46875-45.070312-100.46875-100.46875 45.070312-100.46875 100.46875-100.46875zm218.847656 37.035156h-39.585937c-2.226563-6.292968-4.785157-12.472656-7.648438-18.472656l27.988281-27.988281c7.015626-7.019531 10.882813-16.347657 10.882813-26.273438 0-9.921875-3.867187-19.253906-10.882813-26.269531l-37.164062-37.164062c-14.484375-14.484376-38.054688-14.484376-52.542969 0l-27.992187 27.988281c-6-2.863281-12.179688-5.425781-18.472656-7.652344v-39.582031c.003906-20.488282-16.664063-37.152344-37.152344-37.152344h-52.558594c-20.484375 0-37.152344 16.664062-37.152344 37.152344v39.585937c-6.289062 2.226563-12.46875 4.785157-18.472656 7.648438l-27.988281-27.988281c-7.019531-7.015626-16.347657-10.882813-26.273438-10.882813-9.921875 0-19.253906 3.867187-26.269531 10.882813l-37.164062 37.164062c-7.210938 7.210938-11.070313 16.792969-10.875 26.988281.078124 4.144531 3.503906 7.410157 7.640624 7.355469 4.144532-.082031 7.4375-3.503906 7.355469-7.644531-.117187-6.078125 2.1875-11.792969 6.484375-16.09375l37.164063-37.164063c8.640625-8.636718 22.691406-8.636718 31.328125 0l31.800781 31.800782c2.304687 2.300781 5.832031 2.855468 8.730469 1.363281 8.414062-4.324219 17.277344-7.996094 26.335937-10.90625 3.101563-.996094 5.203125-3.882813 5.203125-7.140625v-44.96875c0-12.214844 9.941406-22.152344 22.152344-22.152344h52.558594c12.214844 0 22.152344 9.9375 22.152344 22.152344v44.96875c0 3.257812 2.105468 6.144531 5.207031 7.140625 9.058593 2.910156 17.917969 6.582031 26.332031 10.910156 2.898438 1.488281 6.429688.9375 8.734375-1.367187l31.796875-31.796876c8.640625-8.640624 22.691406-8.640624 31.328125 0l37.164063 37.164063c4.1875 4.183594 6.488281 9.742187 6.488281 15.660156s-2.300781 11.480469-6.488281 15.664063l-31.796876 31.800781c-2.304687 2.304687-2.855468 5.835937-1.367187 8.730469 4.324219 8.410156 7.996094 17.273437 10.910156 26.335937.996094 3.101563 3.882813 5.203125 7.140625 5.203125h44.96875c12.214844 0 22.152344 9.941406 22.152344 22.152344v52.558594c0 12.214844-9.9375 22.152344-22.152344 22.152344h-44.96875c-3.257812 0-6.144531 2.105468-7.140625 5.207031-2.914062 9.0625-6.585937 17.925781-10.910156 26.332031-1.488281 2.898438-.9375 6.429688 1.367187 8.734375l31.796876 31.800781c4.546874 4.546875 6.894531 10.835938 6.433593 17.257813-.296875 4.132812 2.8125 7.722656 6.945313 8.015625.179687.015625.363281.023437.542968.023437 3.898438 0 7.1875-3.019531 7.472657-6.964843.769531-10.765626-3.160157-21.3125-10.789063-28.941407l-27.988281-27.988281c2.863281-6 5.421875-12.179688 7.652344-18.472656h39.582031c20.488281 0 37.152344-16.667969 37.152344-37.152344v-52.558594c.003906-20.488281-16.664063-37.15625-37.148438-37.15625zm-218.847656 135.199219c39.570312 0 71.765625-32.195313 71.765625-71.765625s-32.195313-71.765625-71.765625-71.765625-71.765625 32.195313-71.765625 71.765625 32.195313 71.765625 71.765625 71.765625zm0-128.53125c31.300781 0 56.765625 25.464844 56.765625 56.765625s-25.464844 56.765625-56.765625 56.765625-56.765625-25.464844-56.765625-56.765625 25.464844-56.765625 56.765625-56.765625zm0 0"/></svg>